<svg width="28" height="29" viewBox="0 0 28 29" fill="none" xmlns="http://www.w3.org/2000/svg">
<path d="M14.1664 22.3072C16.0073 21.8306 17.4249 20.9052 18.5536 19.5483C19.8006 18.0492 20.4375 16.2994 20.5526 14.37C20.6182 13.2701 20.4701 12.172 20.0352 11.1628C19.7568 10.5169 19.9811 10.0842 20.4255 9.45184C20.7455 10.3652 21.1027 11.1429 21.2903 11.959C22.4506 17.0077 19.4415 21.9191 14.4053 23.2277C14.0122 23.3298 13.8588 23.5287 13.8037 23.9017C13.6077 25.2276 13.3932 26.5509 13.183 27.8747C13.1621 28.0058 13.1221 28.1339 13.0798 28.3096C12.782 26.8402 12.4916 25.4233 12.2098 24.0047C12.1474 23.6901 12.0341 23.527 11.6539 23.5182C7.44495 23.4207 3.61547 20.2277 2.77678 16.1154C2.12572 12.9231 2.91581 10.1032 5.04743 7.63177C5.57027 8.23252 5.58983 8.50457 5.1686 9.0867C1.66721 13.9259 4.13952 20.798 9.93962 22.3189C10.5311 22.474 11.1503 22.525 11.8758 22.6439C11.6928 21.9374 11.5531 21.3736 11.4006 20.8133C10.1988 16.3982 8.69314 12.0989 6.41057 8.10417C4.96247 5.5701 3.24938 3.24535 0.892812 1.45216C0.598368 1.22812 0.290256 1.02177 0 0.684937C0.482395 0.724715 0.973211 0.721195 1.44576 0.811679C3.54653 1.2139 5.35913 2.255 7.10798 3.41493C9.24166 4.83008 11.1825 6.48121 13.0141 8.26196C13.1445 8.3888 13.2839 8.50662 13.2833 8.43246C14.3221 7.49364 15.352 6.5449 16.4016 5.61806C18.4778 3.7846 20.7099 2.20274 23.4265 1.42655C24.7972 1.03494 26.0573 0.970884 27.2395 1.26218C23.5367 3.62978 20.8041 6.79455 18.6763 10.5005C16.5654 14.1773 15.1502 18.1132 14.1664 22.3072Z" fill="#713BDB"/>
</svg>
